<svg aria-hidden="true" style="position: absolute; width: 0; height: 0; overflow: hidden;" version="1.1" xmlns="http://www.w3.org/2000/svg" xmlns:xlink="http://www.w3.org/1999/xlink">
<defs>
<symbol id="icon-bookmark" viewBox="0 0 20 20">
<path d="M14 2v17l-4-4-4 4v-17c0-0.553 0.585-1.020 1-1h6c0.689-0.020 1 0.447 1 1z"></path>
</symbol>
<symbol id="icon-chevron-thin-right" viewBox="0 0 20 20">
<path d="M13.25 10l-7.141-7.42c-0.268-0.27-0.268-0.707 0-0.979 0.268-0.27 0.701-0.27 0.969 0l7.83 7.908c0.268 0.271 0.268 0.709 0 0.979l-7.83 7.908c-0.268 0.271-0.701 0.27-0.969 0s-0.268-0.707 0-0.979l7.141-7.417z"></path>
</symbol>
<symbol id="icon-aircraft-take-off" viewBox="0 0 20 20">
<path d="M19.87 6.453c0.119 0.257 0.127 1.29-4.884 3.642l-4.913 2.306c-1.71 0.803-4.191 1.859-5.285 2.151-0.766 0.204-1.497-0.316-1.497-0.316s-2.206-1.975-2.792-2.419c-0.585-0.444-0.535-0.67 0.215-0.91 0.467-0.149 3.13 0.493 4.265 0.78 1.339-0.8 2.562-1.486 3.141-1.798-1.396-1.033-4.008-2.962-4.841-3.55-0.799-0.565 0.010-0.768 0.010-0.768 0.368-0.099 1.162-0.228 1.562-0.144 2.721 0.569 7.263 2.071 7.611 2.186 0.832-0.436 2.128-1.092 2.922-1.465 2.075-0.974 4.327-0.037 4.486 0.305z"></path>
</symbol>
<symbol id="icon-circle-with-cross" viewBox="0 0 20 20">
<path d="M10 1.6c-4.639 0-8.4 3.761-8.4 8.4s3.761 8.4 8.4 8.4 8.4-3.761 8.4-8.4c0-4.639-3.761-8.4-8.4-8.4zM14.789 13.061l-1.729 1.729-3.060-3.061-3.061 3.060-1.729-1.729 3.062-3.060-3.061-3.061 1.729-1.728 3.060 3.060 3.061-3.061 1.729 1.729-3.062 3.061 3.061 3.061z"></path>
</symbol>
<symbol id="icon-home" viewBox="0 0 20 20">
<path d="M18.672 11h-1.672v6c0 0.445-0.194 1-1 1h-4v-6h-4v6h-4c-0.806 0-1-0.555-1-1v-6h-1.672c-0.598 0-0.47-0.324-0.060-0.748l8.024-8.032c0.195-0.202 0.451-0.302 0.708-0.312 0.257 0.010 0.513 0.109 0.708 0.312l8.023 8.031c0.411 0.425 0.539 0.749-0.059 0.749z"></path>
</symbol>
<symbol id="icon-key" viewBox="0 0 20 20">
<path d="M17.691 4.725c-0.503-2.977-3.22-4.967-6.069-4.441s-5.256 2.816-4.753 5.795c0.107 0.641 0.408 1.644 0.763 2.365l-5.175 7.723c-0.191 0.285-0.299 0.799-0.242 1.141l0.333 1.971c0.058 0.342 0.372 0.572 0.7 0.514l1.516-0.281c0.328-0.059 0.744-0.348 0.924-0.639l2.047-3.311 0.018-0.022 1.386-0.256 2.39-3.879c0.785 0.139 1.912 0.092 2.578-0.031 2.848-0.526 4.087-3.67 3.584-6.649zM15.166 6.252c-0.784 1.17-1.584 0.346-2.703-0.475-1.119-0.818-2.135-1.322-1.352-2.492s2.326-1.455 3.447-0.635c1.12 0.819 1.391 2.432 0.608 3.602z"></path>
</symbol>
<symbol id="icon-location-pin" viewBox="0 0 20 20">
<path d="M10 2.009c-2.762 0-5 2.229-5 4.99 0 4.774 5 11 5 11s5-6.227 5-11c0-2.76-2.238-4.99-5-4.99zM10 9.76c-1.492 0-2.7-1.209-2.7-2.7s1.208-2.7 2.7-2.7c1.49 0 2.699 1.209 2.699 2.7s-1.209 2.7-2.699 2.7z"></path>
</symbol>
<symbol id="icon-magnifying-glass" viewBox="0 0 20 20">
<path d="M17.545 15.467l-3.779-3.779c0.57-0.935 0.898-2.035 0.898-3.21 0-3.417-2.961-6.377-6.378-6.377s-6.186 2.769-6.186 6.186c0 3.416 2.961 6.377 6.377 6.377 1.137 0 2.2-0.309 3.115-0.844l3.799 3.801c0.372 0.371 0.975 0.371 1.346 0l0.943-0.943c0.371-0.371 0.236-0.84-0.135-1.211zM4.004 8.287c0-2.366 1.917-4.283 4.282-4.283s4.474 2.107 4.474 4.474c0 2.365-1.918 4.283-4.283 4.283s-4.473-2.109-4.473-4.474z"></path>
</symbol>
<symbol id="icon-map" viewBox="0 0 20 20">
<path d="M19.447 3.718l-6-3c-0.281-0.141-0.613-0.141-0.895 0l-5.63 2.815-5.606-1.869c-0.306-0.102-0.64-0.051-0.901 0.138s-0.415 0.49-0.415 0.811v13.001c0 0.379 0.214 0.725 0.553 0.894l6 3c0.141 0.070 0.294 0.106 0.447 0.106s0.307-0.035 0.447-0.106l5.63-2.814 5.606 1.869c0.305 0.1 0.64 0.049 0.901-0.139s0.415-0.49 0.415-0.81v-13.002c0.001-0.379-0.213-0.725-0.552-0.894zM8 5.231l4-2v11.763l-4 2v-11.763zM2 4l4 1.333v11.661l-4-2v-10.994zM18 16.227l-4-1.334v-11.662l4 2v10.996z"></path>
</symbol>
<symbol id="icon-message" viewBox="0 0 20 20">
<path d="M18 6v7c0 1.1-0.9 2-2 2h-4v3l-4-3h-4c-1.101 0-2-0.9-2-2v-7c0-1.1 0.899-2 2-2h12c1.1 0 2 0.9 2 2z"></path>
</symbol>
<symbol id="icon-star" viewBox="0 0 20 20">
<path d="M10 1.3l2.388 6.722h6.412l-5.232 3.948 1.871 6.928-5.439-4.154-5.438 4.154 1.87-6.928-5.233-3.948h6.412l2.389-6.722z"></path>
</symbol>
<symbol id="icon-pencil" viewBox="0 0 32 32">
<path d="M27 0c2.761 0 5 2.239 5 5 0 1.126-0.372 2.164-1 3l-2 2-7-7 2-2c0.836-0.628 1.874-1 3-1zM2 23l-2 9 9-2 18.5-18.5-7-7-18.5 18.5zM22.362 11.362l-14 14-1.724-1.724 14-14 1.724 1.724z"></path>
</symbol>
<symbol id="icon-user" viewBox="0 0 32 32">
<path d="M18 22.082v-1.649c2.203-1.241 4-4.337 4-7.432 0-4.971 0-9-6-9s-6 4.029-6 9c0 3.096 1.797 6.191 4 7.432v1.649c-6.784 0.555-12 3.888-12 7.918h28c0-4.030-5.216-7.364-12-7.918z"></path>
</symbol>
<symbol id="icon-hammer2" viewBox="0 0 32 32">
<path d="M31.568 28.617l-17.145-15.608 0.798-0.8c0.653-0.655 1.006-1.501 1.060-2.363 0.031-0.014 0.063-0.028 0.092-0.045l3.218-2.013c0.435-0.512 0.404-1.321-0.071-1.797l-5.598-5.613c-0.475-0.476-1.281-0.508-1.792-0.071l-2.007 3.227c-0.016 0.030-0.031 0.061-0.045 0.093-0.859 0.054-1.703 0.408-2.356 1.063l-3.045 3.053c-0.653 0.655-1.006 1.501-1.060 2.363-0.031 0.014-0.063 0.029-0.093 0.045l-3.218 2.013c-0.436 0.512-0.404 1.321 0.071 1.797l5.598 5.613c0.475 0.476 1.281 0.508 1.792 0.071l2.007-3.227c0.017-0.030 0.031-0.061 0.045-0.093 0.859-0.054 1.703-0.408 2.356-1.063l0.884-0.887 15.566 17.191c0.451 0.498 1.147 0.579 1.546 0.178l1.574-1.578c0.399-0.4 0.319-1.098-0.178-1.55z"></path>
</symbol>
<symbol id="icon-smile" viewBox="0 0 32 32">
<path d="M16 32c8.837 0 16-7.163 16-16s-7.163-16-16-16-16 7.163-16 16 7.163 16 16 16zM16 3c7.18 0 13 5.82 13 13s-5.82 13-13 13-13-5.82-13-13 5.82-13 13-13zM8 10c0-1.105 0.895-2 2-2s2 0.895 2 2c0 1.105-0.895 2-2 2s-2-0.895-2-2zM20 10c0-1.105 0.895-2 2-2s2 0.895 2 2c0 1.105-0.895 2-2 2s-2-0.895-2-2zM22.003 19.602l2.573 1.544c-1.749 2.908-4.935 4.855-8.576 4.855s-6.827-1.946-8.576-4.855l2.573-1.544c1.224 2.036 3.454 3.398 6.003 3.398s4.779-1.362 6.003-3.398z"></path>
</symbol>
<symbol id="icon-tongue" viewBox="0 0 32 32">
<path d="M16 32c8.837 0 16-7.163 16-16s-7.163-16-16-16-16 7.163-16 16 7.163 16 16 16zM16 3c7.18 0 13 5.82 13 13s-5.82 13-13 13-13-5.82-13-13 5.82-13 13-13zM8 10c0-1.105 0.895-2 2-2s2 0.895 2 2c0 1.105-0.895 2-2 2s-2-0.895-2-2zM20 10c0-1.105 0.895-2 2-2s2 0.895 2 2c0 1.105-0.895 2-2 2s-2-0.895-2-2zM24 18v2h-2v3c0 1.657-1.343 3-3 3s-3-1.343-3-3v-3h-8v-2h16z"></path>
</symbol>
<symbol id="icon-angry" viewBox="0 0 32 32">
<path d="M16 32c8.837 0 16-7.163 16-16s-7.163-16-16-16-16 7.163-16 16 7.163 16 16 16zM16 3c7.18 0 13 5.82 13 13s-5.82 13-13 13-13-5.82-13-13 5.82-13 13-13zM22.003 24.398c-1.224-2.036-3.454-3.398-6.003-3.398s-4.779 1.362-6.003 3.398l-2.573-1.544c1.749-2.908 4.935-4.855 8.576-4.855s6.827 1.946 8.576 4.855l-2.573 1.544zM23.97 8.758c0.134 0.536-0.192 1.079-0.728 1.213-0.551 0.139-1.204 0.379-1.779 0.667 0.333 0.357 0.537 0.836 0.537 1.363 0 1.105-0.895 2-2 2s-2-0.895-2-2c0-0.037 0.001-0.073 0.003-0.109 0.064-1.483 1.413-2.467 2.55-3.036 1.086-0.543 2.159-0.814 2.205-0.826 0.536-0.134 1.079 0.192 1.213 0.728zM8.030 8.758c0.134-0.536 0.677-0.862 1.213-0.728 0.045 0.011 1.119 0.283 2.205 0.826 1.137 0.569 2.486 1.553 2.55 3.036 0.002 0.036 0.003 0.072 0.003 0.109 0 1.105-0.895 2-2 2s-2-0.895-2-2c0-0.527 0.204-1.005 0.537-1.363-0.575-0.288-1.228-0.528-1.779-0.667-0.536-0.134-0.861-0.677-0.728-1.213z"></path>
</symbol>
<symbol id="icon-shocked" viewBox="0 0 32 32">
<path d="M16 32c8.837 0 16-7.163 16-16s-7.163-16-16-16-16 7.163-16 16 7.163 16 16 16zM16 3c7.18 0 13 5.82 13 13s-5.82 13-13 13-13-5.82-13-13 5.82-13 13-13zM12 22c0-2.209 1.791-4 4-4s4 1.791 4 4c0 2.209-1.791 4-4 4s-4-1.791-4-4zM20 11c0-1.657 0.895-3 2-3s2 1.343 2 3c0 1.657-0.895 3-2 3s-2-1.343-2-3zM8 11c0-1.657 0.895-3 2-3s2 1.343 2 3c0 1.657-0.895 3-2 3s-2-1.343-2-3z"></path>
</symbol>
</defs>
</svg>
